<svg width="14" height="99" viewBox="0 0 14 99" fill="none" xmlns="http://www.w3.org/2000/svg">
<g id="Group">
<g id="Group_2">
<path id="Vector" opacity="0.2" d="M13.1369 0.320068H0.0795898V3.17131H13.1369V0.320068Z" fill="#0500E0"/>
<path id="Vector_2" opacity="0.2533" d="M13.1368 6.67053H0.0794678V9.52177H13.1368V6.67053Z" fill="#1611E2"/>
<path id="Vector_3" opacity="0.3067" d="M13.1368 13.0533H0.0794678V15.9045H13.1368V13.0533Z" fill="#2622E4"/>
<path id="Vector_4" opacity="0.36" d="M13.1368 19.4039H0.0794678V22.2552H13.1368V19.4039Z" fill="#3733E6"/>
<path id="Vector_5" opacity="0.4133" d="M13.1368 25.7543H0.0794678V28.6055H13.1368V25.7543Z" fill="#4844E8"/>
<path id="Vector_6" opacity="0.4667" d="M13.1368 32.1371H0.0794678V34.9884H13.1368V32.1371Z" fill="#5855EA"/>
<path id="Vector_7" opacity="0.52" d="M13.1368 38.4877H0.0794678V41.3389H13.1368V38.4877Z" fill="#6966EC"/>
<path id="Vector_8" opacity="0.5733" d="M13.1368 44.8704H0.0794678V47.7216H13.1368V44.8704Z" fill="#7A77EE"/>
<path id="Vector_9" opacity="0.6267" d="M13.1368 51.221H0.0794678V54.0723H13.1368V51.221Z" fill="#8A88F1"/>
<path id="Vector_10" opacity="0.68" d="M13.1368 57.6037H0.0794678V60.4549H13.1368V57.6037Z" fill="#9B99F3"/>
<path id="Vector_11" opacity="0.7333" d="M13.1368 63.9543H0.0794678V66.8056H13.1368V63.9543Z" fill="#ACAAF5"/>
<path id="Vector_12" opacity="0.7867" d="M13.1368 70.3046H0.0794678V73.1559H13.1368V70.3046Z" fill="#BCBBF7"/>
<path id="Vector_13" opacity="0.84" d="M13.1368 76.6875H0.0794678V79.5387H13.1368V76.6875Z" fill="#CDCCF9"/>
<path id="Vector_14" opacity="0.8933" d="M13.1368 83.038H0.0794678V85.8893H13.1368V83.038Z" fill="#DEDDFB"/>
<path id="Vector_15" opacity="0.9467" d="M13.1368 89.4209H0.0794678V92.2721H13.1368V89.4209Z" fill="#EEEEFD"/>
<path id="Vector_16" d="M13.1368 95.7714H0.0794678V98.6226H13.1368V95.7714Z" fill="white"/>
</g>
</g>
</svg>
