<svg width="9" height="6" viewBox="0 0 9 6" fill="none" xmlns="http://www.w3.org/2000/svg">
<g id="LightGray">
<path id="Vector" d="M7.51837 0.912352C7.45368 0.939306 6.48333 1.6509 5.35665 2.49187L3.31352 4.02825L2.40247 3.1172C1.90112 2.61585 1.41595 2.16842 1.3243 2.12529C0.822957 1.88809 0.219184 2.1792 0.138322 2.70211C0.0574595 3.17111 0.0951954 3.22502 1.34587 4.49186C1.99277 5.13876 2.61271 5.73715 2.72592 5.8234C2.99007 6.01747 3.38899 6.03903 3.65853 5.87192C4.03589 5.6455 8.35395 2.36788 8.48333 2.21154C8.69357 1.96356 8.72591 1.66707 8.56958 1.35979C8.50489 1.21963 8.3809 1.0579 8.30004 1.004C8.13831 0.885398 7.70166 0.83149 7.51837 0.912352Z" fill="#ECECEC"/>
</g>
</svg>
